<svg width="16" height="16" viewBox="0 0 16 16" fill="none" xmlns="http://www.w3.org/2000/svg">
<path d="M14.3334 10.3334C14.52 10.3334 14.6667 10.48 14.6667 10.6667V11.3334C14.6667 12.44 13.7734 13.3334 12.6667 13.3334C12.6667 12.2334 11.7667 11.3334 10.6667 11.3334C9.56671 11.3334 8.66671 12.2334 8.66671 13.3334H7.33337C7.33337 12.2334 6.43337 11.3334 5.33337 11.3334C4.23337 11.3334 3.33337 12.2334 3.33337 13.3334C2.22671 13.3334 1.33337 12.44 1.33337 11.3334V10C1.33337 9.63337 1.63337 9.33337 2.00004 9.33337H8.33337C9.25337 9.33337 10 8.58671 10 7.66671V4.00004C10 3.63337 10.3 3.33337 10.6667 3.33337H11.2267C11.7067 3.33337 12.1467 3.59337 12.3867 4.00671L12.8134 4.75337C12.8734 4.86004 12.7934 5.00004 12.6667 5.00004C11.7467 5.00004 11 5.74671 11 6.66671V8.66671C11 9.58671 11.7467 10.3334 12.6667 10.3334H14.3334Z" fill="#FE8800"/>
<path d="M5.33333 14.6667C6.06971 14.6667 6.66667 14.0697 6.66667 13.3333C6.66667 12.597 6.06971 12 5.33333 12C4.59695 12 4 12.597 4 13.3333C4 14.0697 4.59695 14.6667 5.33333 14.6667Z" fill="#FE8800"/>
<path d="M10.6667 14.6667C11.4031 14.6667 12 14.0697 12 13.3333C12 12.597 11.4031 12 10.6667 12C9.93033 12 9.33337 12.597 9.33337 13.3333C9.33337 14.0697 9.93033 14.6667 10.6667 14.6667Z" fill="#FE8800"/>
<path d="M14.6667 8.35333V9.33333H12.6667C12.3 9.33333 12 9.03333 12 8.66667V6.66667C12 6.3 12.3 6 12.6667 6H13.5267L14.4933 7.69333C14.6067 7.89333 14.6667 8.12 14.6667 8.35333Z" fill="#FE8800"/>
<path d="M8.71992 1.33337H3.79325C2.59992 1.33337 1.59992 2.18671 1.37992 3.32004H4.29325C4.54659 3.32004 4.74658 3.52671 4.74658 3.78004C4.74658 4.03337 4.54659 4.23337 4.29325 4.23337H1.33325V5.15337H3.06659C3.31992 5.15337 3.52659 5.36004 3.52659 5.61337C3.52659 5.86671 3.31992 6.06671 3.06659 6.06671H1.33325V6.98671H1.84659C2.09992 6.98671 2.30659 7.19337 2.30659 7.44671C2.30659 7.70004 2.09992 7.90004 1.84659 7.90004H1.33325V8.05337C1.33325 8.42004 1.63325 8.72004 1.99992 8.72004H8.09992C8.77992 8.72004 9.33325 8.16671 9.33325 7.48671V1.94671C9.33325 1.60671 9.05992 1.33337 8.71992 1.33337Z" fill="#FE8800"/>
<path d="M1.37996 3.32007H1.27996H0.626626C0.373293 3.32007 0.166626 3.52674 0.166626 3.78007C0.166626 4.0334 0.373293 4.2334 0.626626 4.2334H1.23329H1.33329V3.7934C1.33329 3.6334 1.35329 3.4734 1.37996 3.32007Z" fill="#FE8800"/>
<path d="M1.23329 5.15332H0.626626C0.373293 5.15332 0.166626 5.35999 0.166626 5.61332C0.166626 5.86665 0.373293 6.06665 0.626626 6.06665H1.23329H1.33329V5.15332H1.23329Z" fill="#FE8800"/>
<path d="M1.23329 6.98669H0.626626C0.373293 6.98669 0.166626 7.19336 0.166626 7.44669C0.166626 7.70003 0.373293 7.90003 0.626626 7.90003H1.23329H1.33329V6.98669H1.23329Z" fill="#FE8800"/>
</svg>
