<svg width="16" height="16" viewBox="0 0 16 16" fill="none" xmlns="http://www.w3.org/2000/svg">
<path d="M13.9563 7.75362L11.8803 9.74841L12.3703 12.5624C12.4503 13.0217 12.2649 13.4797 11.8863 13.757C11.5003 14.039 10.9963 14.0778 10.5709 13.8584L8.00027 12.5271L5.42961 13.8584C5.24694 13.9531 5.04895 13.9997 4.85228 13.9997C4.59228 13.9997 4.33426 13.9177 4.11426 13.757C3.73626 13.4797 3.55027 13.0217 3.63027 12.5624L4.12026 9.74841L2.04427 7.75362C1.70427 7.42696 1.58226 6.94638 1.72626 6.49972C1.87159 6.04772 2.25693 5.72576 2.73159 5.65776L5.60427 5.2463L6.88827 2.68298C7.09894 2.26165 7.5256 2.00037 8.00027 2.00037C8.47494 2.00037 8.9016 2.26232 9.11227 2.68298L10.3963 5.2463L13.2689 5.65776C13.7429 5.72576 14.1283 6.04772 14.2736 6.49972C14.4176 6.94638 14.2963 7.42696 13.9563 7.75362Z" fill="#FE8800"/>
</svg>
