<svg width="16" height="16" viewBox="0 0 16 16" fill="none" xmlns="http://www.w3.org/2000/svg">
<path d="M14.6667 7.3133V8.68663C14.6667 9.0533 14.3733 9.3533 14 9.36663H12.6933C11.9733 9.36663 11.3133 8.83997 11.2533 8.11997C11.2133 7.69997 11.3733 7.30663 11.6533 7.0333C11.9 6.77997 12.24 6.6333 12.6133 6.6333H14C14.3733 6.64663 14.6667 6.94663 14.6667 7.3133Z" fill="#FE8800"/>
<path d="M13.6467 10.3667H12.6933C11.4267 10.3667 10.36 9.41337 10.2533 8.20004C10.1933 7.50671 10.4467 6.81337 10.9533 6.32004C11.38 5.88004 11.9733 5.63337 12.6133 5.63337H13.6467C13.84 5.63337 14 5.47337 13.98 5.28004C13.8333 3.66004 12.76 2.55337 11.1667 2.36671C11.0067 2.34004 10.84 2.33337 10.6667 2.33337H4.66668C4.48001 2.33337 4.30001 2.34671 4.12668 2.37337C2.42668 2.58671 1.33334 3.85337 1.33334 5.66671V10.3334C1.33334 12.1734 2.82668 13.6667 4.66668 13.6667H10.6667C12.5333 13.6667 13.82 12.5 13.98 10.72C14 10.5267 13.84 10.3667 13.6467 10.3667ZM8.66668 6.50004H4.66668C4.39334 6.50004 4.16668 6.27337 4.16668 6.00004C4.16668 5.72671 4.39334 5.50004 4.66668 5.50004H8.66668C8.94001 5.50004 9.16668 5.72671 9.16668 6.00004C9.16668 6.27337 8.94001 6.50004 8.66668 6.50004Z" fill="#FE8800"/>
</svg>
